<svg width="24" height="24" viewBox="0 0 24 24" fill="none" xmlns="http://www.w3.org/2000/svg">
<g clip-path="url(#clip0_1001_46)">
<path d="M23.7005 3.6022C23.666 3.69414 23.6683 3.79297 23.6476 3.88721C23.4936 4.60434 23.3419 5.32147 23.1879 6.03859C22.9328 7.2361 22.6777 8.43361 22.4226 9.63112C22.1192 11.0562 21.8134 12.4789 21.5101 13.904C21.2365 15.1912 20.9607 16.476 20.6872 17.7632C20.5102 18.5929 20.3332 19.4204 20.1539 20.2501C20.1126 20.4432 20.0436 20.6317 19.9471 20.8064C19.6919 21.273 19.2828 21.4453 18.7703 21.3051C18.4829 21.227 18.2347 21.0753 17.9957 20.9006C16.3477 19.6893 14.695 18.4803 13.0447 17.2713C12.9942 17.2345 12.9666 17.2299 12.9183 17.2782C12.0518 18.1102 11.183 18.9377 10.3164 19.7697C10.1257 19.9513 9.91879 20.1007 9.65447 20.1467C9.57402 20.1605 9.49357 20.1697 9.41313 20.1697C9.37865 20.1697 9.36946 20.1605 9.37175 20.1237C9.41083 19.5836 9.4499 19.0411 9.48898 18.501C9.51426 18.1378 9.53954 17.777 9.56483 17.4138C9.6016 16.9012 9.63838 16.3887 9.67515 15.8761C9.69584 15.575 9.72112 15.2762 9.73491 14.9751C9.73951 14.8786 9.76709 14.8096 9.84294 14.743C11.5139 13.2466 13.1826 11.748 14.8513 10.2494C16.2327 9.01053 17.6118 7.76935 18.9932 6.53047C19.1656 6.37647 19.338 6.22017 19.5104 6.06617C19.5701 6.01331 19.6276 5.96044 19.6621 5.88689C19.7149 5.78116 19.6805 5.69612 19.5678 5.65934C19.4575 5.62257 19.3449 5.63866 19.2368 5.66624C19.1173 5.69612 19.0093 5.74898 18.9036 5.81334C16.5476 7.28667 14.1917 8.7623 11.838 10.2356C10.1693 11.2791 8.50063 12.3249 6.83193 13.3685C6.79745 13.3891 6.76987 13.4029 6.7262 13.3914C4.99084 12.8513 3.25319 12.3112 1.51783 11.7687C1.31097 11.7044 1.1179 11.6147 0.950106 11.4699C0.690377 11.247 0.665094 10.9642 0.88345 10.6999C1.07193 10.4701 1.32246 10.3253 1.58908 10.2103C2.09935 9.98969 2.6234 9.80581 3.14286 9.60584C6.2619 8.40833 9.37865 7.21542 12.4954 6.0225C15.0835 5.03186 17.6716 4.04121 20.2574 3.05056C20.9078 2.80233 21.5583 2.55179 22.2111 2.30585C22.4524 2.21391 22.703 2.18173 22.9581 2.24609C23.3511 2.34493 23.5626 2.61385 23.6568 2.9931C23.6752 3.07125 23.6867 3.1517 23.7028 3.22984C23.7005 3.35166 23.7005 3.47808 23.7005 3.6022Z" fill="#6B7073"/>
</g>
<defs>
<clipPath id="clip0_1001_46">
<rect width="22.9848" height="22.9848" fill="white" transform="translate(0.727051 0.287842)"/>
</clipPath>
</defs>
</svg>
