<svg width="30" height="30" viewBox="0 0 30 30" fill="none" xmlns="http://www.w3.org/2000/svg">
<g clip-path="url(#clip0_902_3698)">
<path d="M17.6023 10.4094C17.6023 11.478 17.5964 12.5495 17.6052 13.6181C17.6081 13.8225 17.6344 14.0356 17.6957 14.2313C17.8037 14.5729 18.0373 14.6867 18.3702 14.5554C18.5629 14.4794 18.7497 14.3597 18.9132 14.2313C19.5264 13.7437 20.0081 13.1364 20.4636 12.5057C21.6753 10.8327 22.6417 9.01961 23.465 7.13056C23.6694 6.66049 23.9585 6.28969 24.484 6.17582C24.6271 6.14371 24.776 6.12911 24.922 6.12911C25.9701 6.12619 27.0212 6.12327 28.0694 6.12911C28.2387 6.12911 28.4139 6.14955 28.5803 6.19042C28.9862 6.29553 29.1789 6.6021 29.1117 7.0167C29.0241 7.5364 28.8256 8.01815 28.5979 8.48822C28.0344 9.65318 27.3657 10.7568 26.6679 11.8459C26.084 12.7597 25.4796 13.659 24.8869 14.567C24.776 14.7364 24.6767 14.9116 24.5804 15.0897C24.4373 15.3495 24.4256 15.6269 24.595 15.8692C24.7964 16.1583 25.0096 16.4473 25.2606 16.6926C26.2212 17.6415 27.1438 18.6225 27.9935 19.6707C28.4986 20.2926 29.0095 20.9115 29.3833 21.6239C29.5263 21.8984 29.6431 22.1991 29.7073 22.4998C29.83 23.0779 29.5176 23.4896 28.9307 23.5831C28.7818 23.6064 28.6271 23.6152 28.4752 23.6152C27.465 23.6181 26.4577 23.6093 25.4475 23.621C24.9482 23.6269 24.5132 23.475 24.1628 23.1305C23.7482 22.7217 23.3512 22.2955 22.9599 21.8634C22.1015 20.9145 21.2315 19.9801 20.2154 19.1947C19.8417 18.9057 19.4534 18.6429 19.0096 18.4648C18.738 18.3568 18.4607 18.3276 18.1745 18.3597C17.8621 18.3948 17.7074 18.5261 17.6519 18.8385C17.6169 19.0429 17.5994 19.2502 17.5994 19.4575C17.5935 20.3918 17.5964 21.3232 17.5964 22.2575C17.5964 22.3801 17.5994 22.5028 17.5818 22.6225C17.5176 23.0925 17.2519 23.3436 16.6943 23.4633C16.0899 23.5947 15.4767 23.6093 14.8636 23.5714C12.6008 23.4342 10.633 22.5436 8.85195 21.1918C7.49721 20.1641 6.39357 18.9028 5.43298 17.5072C3.99941 15.4283 2.72059 13.2648 1.72497 10.9437C1.2549 9.8488 0.837382 8.7364 0.603806 7.56268C0.551252 7.29699 0.536653 7.01961 0.554171 6.751C0.57169 6.4386 0.778988 6.24882 1.07096 6.16414C1.21694 6.12327 1.36877 6.09699 1.52059 6.09699C2.64759 6.09115 3.77168 6.09407 4.89868 6.09407C5.42715 6.09407 5.8213 6.32473 6.03152 6.81232C6.20086 7.20648 6.34101 7.61523 6.49283 8.01815C7.2578 10.059 8.18626 12.0181 9.38917 13.84C9.78625 14.4415 10.2096 15.0254 10.7498 15.5101C10.9133 15.6561 11.1001 15.7904 11.2957 15.8867C11.6695 16.0678 11.976 15.9101 12.0578 15.5043C12.0987 15.3028 12.1191 15.0926 12.1191 14.8853C12.1249 13.2678 12.1308 11.6503 12.1191 10.0327C12.1133 9.16267 11.8563 8.36851 11.2928 7.68531C11.1935 7.5656 11.1001 7.43713 11.0125 7.30867C10.8432 7.05465 10.7994 6.7802 10.9483 6.50575C11.103 6.21962 11.36 6.09699 11.6782 6.09407C12.3877 6.09115 13.0972 6.09407 13.8067 6.09407C14.741 6.09407 15.6724 6.09407 16.6067 6.09407C16.7089 6.09407 16.8081 6.09991 16.9103 6.11451C17.249 6.16122 17.4651 6.36268 17.5351 6.69261C17.5789 6.89991 17.5994 7.11305 17.5994 7.32618C17.6052 8.351 17.6023 9.38165 17.6023 10.4094Z" fill="#6B7073"/>
</g>
<defs>
<clipPath id="clip0_902_3698">
<rect width="29.197" height="29.197" fill="white" transform="translate(0.54541 0.257568)"/>
</clipPath>
</defs>
</svg>
